<svg xmlns="http://www.w3.org/2000/svg" width="32" height="32" viewBox="0 0 32 32" fill="none" aria-label="Sticker free cancellation icon">
  <defs>
    <filter id="s" x="0" y="0" width="32" height="32"><feDropShadow dx="0" dy="2" stdDeviation="1.5" flood-color="#0B2A63" flood-opacity=".45"/></filter>
    <linearGradient id="g1" x1="4" y1="6" x2="28" y2="26"><stop stop-color="#0F3870"/><stop offset="1" stop-color="#2B6CB0"/></linearGradient>
    <linearGradient id="g2" x1="4" y1="6" x2="28" y2="26"><stop stop-color="#FFF2E8"/><stop offset=".5" stop-color="#FFD8C2"/><stop offset="1" stop-color="#FFE0B8"/></linearGradient>
  </defs>
  <g filter="url(#s)">
    <path d="M9 22.8c0-4.6 2.8-8 6.8-8h.4c1.3-2.8 3.8-4.5 6.9-4.5 4.4 0 7.9 3.5 7.9 7.9 0 4.5-3.5 8.1-8 8.1z" fill="#0F3870" opacity=".6" transform="translate(0, 1)"/>
    <path d="M9 22.8c0-4.6 2.8-8 6.8-8h.4c1.3-2.8 3.8-4.5 6.9-4.5 4.4 0 7.9 3.5 7.9 7.9 0 4.5-3.5 8.1-8 8.1z" fill="url(#g2)" stroke="#0B2A63" stroke-width="1.8" stroke-linejoin="round"/>
    <rect x="8.1" y="16.6" width="5.7" height="8.5" rx="1.3" fill="#1D9BF0" stroke="#0B2A63" stroke-width="1.8"/>
    <circle cx="10.8" cy="23.2" r="0.8" fill="#BFE6FF"/>
    <circle cx="17.8" cy="10.2" r="6.1" fill="#FF374F" stroke="#0B2A63" stroke-width="1.8"/>
    <path d="M15.4 7.8l4.8 4.8M20.2 7.8l-4.8 4.8" stroke="#F8FAFC" stroke-width="2.2" stroke-linecap="round"/>
  </g>
</svg>